<svg width="92.662849mm" height="23.478992mm" viewBox="0 0 328.33293 83.19328" id="elektro" version="1.1">
      <defs
         id="defs4" />
      <g
         id="layer1"
         transform="translate(0.51530987,-968.92355)">
        <g
           style="font-style:normal;font-weight:normal;font-size:70px;line-height:125%;font-family:sans-serif;letter-spacing:0px;word-spacing:0px;fill:#FFFFFF;fill-opacity:1;stroke:#FFFFFF;stroke-width:1px;stroke-linecap:butt;stroke-linejoin:miter;stroke-opacity:1"
           id="text4136">
          <path
             style="font-style:normal;font-variant:normal;font-weight:normal;font-stretch:normal;font-family:Anaktoria;-inkscape-font-specification:Anaktoria"
             d="m 22.114258,1005.1259 c 0.08789,13.0434 -23.5750886,2.9676 -16.4489748,17.3461 4.5736688,5.7177 18.6928948,-9.9596 12.1337888,1.6578 -10.1050938,12.0789 -23.571559,-3.5295 -16.1968991,-14.7534 2.1909806,-8.2579 17.6751821,-16.51525 20.5120851,-4.2505 z m -4.819336,1.5039 c -3.677252,-11.35441 -15.55196,9.6611 -2.358399,3.1445 l 1.768799,-1.4868 0.5896,-1.6577 0,0 z"
             id="path4141"
              />
          <path
             style="font-style:normal;font-variant:normal;font-weight:normal;font-stretch:normal;font-family:Anaktoria;-inkscape-font-specification:Anaktoria"
             d="m 46.416016,969.51062 c -3.900691,4.97754 -5.859552,10.82892 -7.314454,16.95313 -2.680336,11.11229 -6.851086,22.33395 -8.502197,33.42775 4.963224,0.3505 9.668278,1.6157 2.999268,6.0156 -12.068869,8.3695 -9.438293,-7.3103 -6.24509,-14.1315 3.046066,-11.7444 6.483124,-23.39962 9.52634,-35.12143 -10.83126,-7.07537 5.708845,-5.3661 9.536133,-7.14355 z"
             id="path4143"
              />
          <path
             style="font-style:normal;font-variant:normal;font-weight:normal;font-stretch:normal;font-family:Anaktoria;-inkscape-font-specification:Anaktoria"
             d="m 64.49707,1005.1259 c 0.08789,13.0434 -23.575088,2.9676 -16.448974,17.3461 4.573668,5.7177 18.692894,-9.9596 12.133789,1.6578 -10.105094,12.0789 -23.57156,-3.5295 -16.1969,-14.7534 2.190981,-8.2579 17.675182,-16.51525 20.512085,-4.2505 z m -4.819336,1.5039 c -3.677252,-11.35441 -15.55196,9.6611 -2.358398,3.1445 l 1.768798,-1.4868 0.5896,-1.6577 0,0 z"
             id="path4145"
              />
          <path
             style="font-style:normal;font-variant:normal;font-weight:normal;font-stretch:normal;font-family:Anaktoria;-inkscape-font-specification:Anaktoria"
             d="m 111.01563,1046.9618 c -6.63218,13.4288 -22.064998,-2.5664 -24.959722,-11.8347 -3.079492,-6.2571 -8.254333,-27.5677 -14.825439,-12.4671 -1.803587,9.9809 -9.478142,3.9205 -4.285278,-3.0783 3.909902,-15.0468 8.638347,-29.97348 11.66809,-45.18338 -3.887675,-8.80895 12.76508,-6.07518 4.819336,1.74316 -2.99035,12.0364 -7.514812,24.05122 -9.179383,36.18992 6.267817,3.7992 16.697793,-7.3048 9.136659,-10.4014 9.705466,-9.39322 10.809621,6.7659 2.666015,10.2625 -5.296633,10.859 6.713833,23.7887 12.911378,32.6501 4.314274,7.2387 10.551674,-4.435 12.048344,2.1192 z"
             id="path4147"
              />
          <path
             style="font-style:normal;font-variant:normal;font-weight:normal;font-stretch:normal;font-family:Anaktoria;-inkscape-font-specification:Anaktoria"
             d="m 121.47461,999.96472 c -4.35758,3.89478 -13.09288,2.48168 -12.5244,11.92708 -1.5235,3.9828 -4.69851,16.0521 2.74897,9.0251 11.90542,-7.2496 -6.77772,17.9408 -10.39063,3.4521 -1.416573,-7.3239 10.94326,-21.2382 0.30762,-22.559 1.81061,-4.34433 9.47321,-1.6457 9.22852,-8.95505 7.9995,-3.44854 -1.74889,9.68385 7.17773,6.28906 0.0795,0.33854 3.73513,-1.01172 3.45219,0.82071 z"
             id="path4149"
              />
          <path
             style="font-style:normal;font-variant:normal;font-weight:normal;font-stretch:normal;font-family:Anaktoria;-inkscape-font-specification:Anaktoria"
             d="m 148.44238,1001.6053 c -0.35692,10.8976 -8.57766,-2.53111 -11.28784,7.0282 -4.88137,5.5563 -5.28546,13.4791 -8.84399,19.5209 -11.56493,-2.1092 6.29758,-18.1862 0.34179,-24.9426 -8.80438,0.3366 9.01863,-9.49996 4.44336,0.957 -1.77013,13.6107 11.20024,-14.61161 15.34668,-2.5635 z"
             id="path4151"
              />
          <path
             style="font-style:normal;font-variant:normal;font-weight:normal;font-stretch:normal;font-family:Anaktoria;-inkscape-font-specification:Anaktoria"
             d="m 173.94043,1008.2704 c 0.21524,10.1023 -9.75539,24.7348 -20.89875,18.551 -7.47028,-8.6175 -0.87704,-24.0301 9.30329,-27.39715 6.13413,-2.04811 12.42067,2.03445 11.59546,8.84615 z m -4.68262,-0.068 c -3.98368,-15.81679 -23.91055,12.8758 -10.62988,15.5518 7.14631,-0.5529 10.35647,-9.4996 10.62988,-15.5518 z"
             id="path4153"
              />
          <path
             style="font-style:normal;font-variant:normal;font-weight:normal;font-stretch:normal;font-family:Anaktoria;-inkscape-font-specification:Anaktoria"
             d="m 193.76465,1014.0468 c -3.11833,2.0058 -8.41671,0.3455 -12.39007,0.8886 -5.17464,2.6364 -8.35944,-5.3924 -1.92521,-4.3066 4.68567,0.1482 9.46758,-0.2966 14.09311,0.2222 0.45371,0.9964 0.12266,2.1389 0.22217,3.1958 z"
             id="path4155"
              />
          <path
             style="font-style:normal;font-variant:normal;font-weight:normal;font-stretch:normal;font-family:Anaktoria;-inkscape-font-specification:Anaktoria"
             d="m 222.50977,1021.327 c -2.05,9.6411 -18.72858,7.7798 -10.43762,-2.8818 3.48344,-3.5891 8.84862,-19.83524 -0.2179,-10.8841 -6.84552,4.5349 -9.05012,23.336 -17.39319,19.0104 -1.40424,-7.2237 10.06111,-17.3163 4.29382,-22.283 -12.9781,7.8992 9.43794,-14.9778 5.9024,-0.1454 -3.86831,7.4702 1.12284,10.1509 4.77021,2.3841 4.8681,-11.97563 19.06442,-6.2919 10.4654,5.0078 -2.50625,6.0671 -9.24011,15.6574 2.61688,9.792 z"
             id="path4157"
              />
          <path
             style="font-style:normal;font-variant:normal;font-weight:normal;font-stretch:normal;font-family:Anaktoria;-inkscape-font-specification:Anaktoria"
             d="m 241.99219,991.7616 c -9.54881,14.3417 -8.27445,-13.4744 0,0 z m -1.67481,8.7158 c -2.51979,6.3735 -13.87258,23.4944 -1.64062,22.0117 -6.51854,12.2922 -17.19362,1.2933 -8.74627,-8.1854 6.123,-6.7807 -5.91621,-7.8994 2.55974,-12.1515 1.6384,-1.173 6.70136,-5.49444 7.82715,-1.6748 z"
             id="path4159"
              />
          <path
             style="font-style:normal;font-variant:normal;font-weight:normal;font-stretch:normal;font-family:Anaktoria;-inkscape-font-specification:Anaktoria"
             d="m 273.40332,998.52917 c -5.78459,10.32853 -7.07758,22.52103 -10.60419,33.75813 -1.83225,5.6555 -3.19362,12.3782 -1.67484,17.1953 -4.32117,1.2292 -16.84475,4.941 -7.59646,-1.9825 4.65624,-14.0725 7.87024,-28.9486 11.84326,-43.3655 -8.95711,-3.9211 -21.50446,13.1037 -13.55865,20.3882 11.20175,1.592 -9.34768,6.4689 -6.81244,-3.8217 -0.62948,-11.6648 10.85805,-24.69033 23.13965,-21.00982 1.55756,-0.088 3.88273,-2.86556 5.26367,-1.16211 z"
             id="path4161"
              />
          <path
             style="font-style:normal;font-variant:normal;font-weight:normal;font-stretch:normal;font-family:Anaktoria;-inkscape-font-specification:Anaktoria"
             d="m 303.27637,1002.3573 c 0.0941,5.2238 -11.87765,21.419 -3.48633,19.7217 10.66749,-3.7632 -11.69101,14.7278 -6.93848,0.9463 4.07439,-7.6138 -0.91599,-9.6401 -4.63989,-2.1533 -5.05104,11.8676 -19.22449,6.5168 -10.60318,-4.9785 4.50772,-5.8325 5.92077,-15.7088 -2.6329,-10.0499 2.1441,-9.92715 18.1677,-7.21054 10.13855,3.2343 -4.51275,4.4771 -7.69983,20.6921 1.45477,9.8843 5.21942,-2.3163 11.63006,-28.03117 16.70746,-16.6049 z"
             id="path4163"
              />
          <path
             style="font-style:normal;font-variant:normal;font-weight:normal;font-stretch:normal;font-family:Anaktoria;-inkscape-font-specification:Anaktoria"
             d="m 327.81738,1005.1259 c 0.0879,13.0434 -23.57509,2.9676 -16.44897,17.3461 4.57367,5.7177 18.69289,-9.9596 12.13379,1.6578 -10.10509,12.0789 -23.57157,-3.5295 -16.1969,-14.7534 2.19098,-8.2579 17.67517,-16.51525 20.51208,-4.2505 z m -4.81933,1.5039 c -3.67725,-11.35441 -15.55197,9.6611 -2.3584,3.1445 l 1.7688,-1.4868 0.5896,-1.6577 0,0 z"
             id="path4165"
              />
        </g>
      </g>
    </svg>
